<svg xmlns="http://www.w3.org/2000/svg" viewBox="0 0 100 100" width="128" height="128">
  <defs>
    <linearGradient id="neonGrad" x1="0%" y1="0%" x2="100%" y2="100%">
      <stop offset="0%" stop-color="#00f2fe" />
      <stop offset="100%" stop-color="#00ff87" />
    </linearGradient>
    <filter id="glow" x="-20%" y="-20%" width="140%" height="140%">
      <feGaussianBlur stdDeviation="3" result="blur" />
      <feComposite in="SourceGraphic" in2="blur" operator="over" />
    </filter>
  </defs>
  <!-- Rounded dark background -->
  <rect width="90" height="90" x="5" y="5" rx="20" fill="#070a13" stroke="url(#neonGrad)" stroke-width="4" />
  <!-- Car icon inside -->
  <path d="M72,52 L72,46 C72,42.5 69.5,41.2 66,41 C63,40.8 56,40 50,40 C44,40 37,40.8 34,41 C30.5,41.2 28,42.5 28,46 L28,52 C25,52 23,54 23,57 L23,65 C23,66.5 24,67.5 25.5,67.5 L28,67.5 C28,70.5 30.5,73 33.5,73 C36.5,73 39,70.5 39,67.5 L61,67.5 C61,70.5 63.5,73 66.5,73 C69.5,73 72,70.5 72,67.5 L74.5,67.5 C76,67.5 77,66.5 77,65 L77,57 C77,54 75,52 72,52 Z" fill="url(#neonGrad)" filter="url(#glow)" />
  <circle cx="33.5" cy="67.5" r="2.5" fill="#070a13" />
  <circle cx="66.5" cy="67.5" r="2.5" fill="#070a13" />
  <!-- TAXI sign on top -->
  <path d="M44,34 L56,34 L54,40 L46,40 Z" fill="url(#neonGrad)" />
</svg>